<svg width="31" height="31" viewBox="0 0 31 31" fill="none" xmlns="http://www.w3.org/2000/svg">
<path d="M24.5 19.5C24.5 18 22.7442 17.7006 22 18C19.2155 19.1203 20.5 23 24 22.5C29.5 21 26 14 21.5 15C19.8417 15.3685 18.6859 16.5017 18.3343 17.034M14.0661 14.4507L15.0478 16.9307M15.0478 16.9307L16 19.5L10.2733 21.81C10.452 23.0991 10.4749 25.3172 9.13666 23.8767L8 21.5L6.46388 21.076C3.07411 19.6499 5.9676 19.6658 8.20667 19.7433L12 18.5L11.1728 17.034H3.11278C1.28723 16.9996 -1.14455 15.3187 3.73278 8.87071C4.14612 8.18183 5.53079 6.82472 7.76279 6.90738C9.99479 6.99005 10.131 7.24706 9.54548 7.86706C8.09881 8.87071 11.4828 9.69736 11.8961 6.90738C16.8217 5.42627 29.1141 4.56673 30.2895 18.3774C30.2895 22.7174 28 24.9907 24.0895 25.3007C18.8913 25.7128 15.9389 20.66 18.3343 17.034M15.0478 16.9307L18.3343 17.034M4.23683 11.8001C4.23683 10.1467 6.89747 10.2501 6.89747 11.8001C6.89747 13.4534 4.23683 13.4534 4.23683 11.8001Z" stroke="#05D8F5" stroke-width="1.29167" stroke-linecap="round" stroke-linejoin="round"/>
</svg>
